<svg xmlns="http://www.w3.org/2000/svg" viewBox="0 0 100 100"><rect width="100" height="100" rx="20" ry="20" fill="#10306e"/><path d="M14 34 V16 H32" fill="none" stroke="#ffffff" stroke-width="7"/><path d="M68 16 H86 V34" fill="none" stroke="#ffffff" stroke-width="7"/><path d="M86 66 V84 H68" fill="none" stroke="#ffffff" stroke-width="7"/><path d="M32 84 H14 V66" fill="none" stroke="#ffffff" stroke-width="7"/><path d="M33.63428571428571 40.096428571428575H24.82642857142857V35.25H48.17357142857142V40.096428571428575H39.36571428571428V64.75H33.63428571428571Z M76.37464285714286 67.11 72.83464285714285 70.65 66.89250000000001 64.75H55.471785714285716L50.62535714285715 59.903571428571425V40.096428571428575L55.471785714285716 35.25H70.6432142857143L75.48964285714285 40.096428571428575V59.903571428571425L72.37107142857144 63.02214285714286ZM67.60892857142858 59.86142857142857 69.75821428571429 57.71214285714286V42.28785714285714L67.60892857142858 40.138571428571424H58.50607142857143L56.35678571428572 42.28785714285714V57.71214285714286L58.50607142857143 59.86142857142857Z" fill="#ffffff"/><path d="M35.495714285714286 80.0H40.51285714285714L41.65571428571429 81.14285714285714V83.38285714285715L41.198571428571434 83.85142857142857L42.010000000000005 84.67428571428572V86.76571428571428L40.77571428571429 88.0H35.495714285714286ZM39.712857142857146 83.34857142857143 40.12428571428572 82.93714285714286V81.70285714285714L39.72428571428571 81.30285714285714H37.01571428571429V83.34857142857143ZM39.98714285714286 86.69714285714285 40.47857142857143 86.20571428571428V85.08571428571429L39.98714285714286 84.59428571428572H37.01571428571429V86.69714285714285Z M43.652857142857144 80.0H45.20714285714286V86.68571428571428H49.20714285714286V88.0H43.652857142857144Z M50.56428571428572 86.62857142857143V80.0H52.118571428571435V86.09142857142857L52.70142857142858 86.67428571428572H54.941428571428574L55.52428571428572 86.09142857142857V80.0H57.078571428571436V86.62857142857143L55.70714285714286 88.0H51.93571428571429Z M59.06428571428572 80.0H64.84714285714286V81.31428571428572H60.618571428571435V83.33714285714285H64.5157142857143V84.62857142857143H60.618571428571435V86.68571428571428H64.84714285714286V88.0H59.06428571428572Z" fill="#ffffff"/></svg>
